<svg xmlns="http://www.w3.org/2000/svg" width="62" height="62" viewBox="0 0 62 62">
    <path fill="#FFF" fill-rule="evenodd" d="M30.765.405c4.177 0 8.178.832 11.993 2.46 7.642 3.258 13.162 8.769 16.41 16.343a29.912 29.912 0 0 1 2.46 11.962c0 4.177-.825 8.182-2.46 11.994-3.251 7.574-8.772 13.12-16.41 16.378a30.271 30.271 0 0 1-11.993 2.456c-4.18 0-8.15-.821-11.962-2.456-7.575-3.25-13.12-8.79-16.378-16.378C.797 39.363 0 35.347 0 31.17c0-4.18.797-8.16 2.425-11.962C5.682 11.62 11.228 6.116 18.803 2.865A29.973 29.973 0 0 1 30.765.405zm0 3.707c-4.886 0-9.404 1.215-13.545 3.64-4.145 2.425-7.459 5.72-9.873 9.873-2.405 4.135-3.605 8.66-3.605 13.545 0 3.671.691 7.217 2.123 10.544 1.432 3.346 3.352 6.252 5.76 8.662 2.411 2.408 5.29 4.31 8.627 5.761 3.335 1.45 6.841 2.158 10.513 2.158 4.886 0 9.43-1.22 13.577-3.64 4.176-2.432 7.49-5.724 9.908-9.873 2.432-4.174 3.636-8.726 3.636-13.612 0-4.886-1.21-9.403-3.636-13.545-2.429-4.145-5.735-7.44-9.908-9.873-4.15-2.418-8.691-3.64-13.577-3.64zM30.879 12c1.057 0 1.98.843 1.98 1.89v17.466l9.57 9.507c.737.73.786 1.854 0 2.631-.68.675-1.948.675-2.632 0L29.58 33.414c-.41-.407-.58-.913-.513-1.521 0-.098-.067-.235-.067-.267V13.89c0-1.047.886-1.89 1.88-1.89z"/>
</svg>
