<svg xmlns="http://www.w3.org/2000/svg" width="31" height="61" viewBox="0 0 31 61">
    <path fill="#FFF" fill-rule="evenodd" d="M30.184 2.985v16.93c0 .9-2.794 3.1-4.662 4.474v4.99a2.451 2.451 0 0 1 1.659 2.312v26.496c0 1.354-1.1 2.454-2.454 2.454h-1.719a2.453 2.453 0 0 1-2.451-2.454V31.691a2.45 2.45 0 0 1 1.655-2.312v-4.94c-1.982-1.363-5.029-3.611-5.029-4.525V2.985c0-1.357.657-2.454 2.121-2.454h.878v17.658c0 .423.534.762 1.193.762.66 0 1.196-.34 1.196-.762V.531h2.21v17.658c0 .423.536.762 1.195.762s1.196-.34 1.196-.762V.531h.36c1.466 0 2.652 1.097 2.652 2.454zM6.529.64S0 4.907 0 16.205v2.235c0 11.152 2.451 16.064 4.094 18.908v21.806c0 .999.811 1.81 1.813 1.81H7.18c.999 0 1.814-.811 1.814-1.81V36.282c.028-.158.047-.323.047-.49V3.146c0-1.386-.542-3.304-2.511-2.508z"/>
</svg>
